Coordinates
version=1
nRows=7
nColumns=40
inDegrees=yes

Units are S.I. units (second, meters, Newtons, ...)
Angles are in degrees.

endheader
time	pelvis_tilt	pelvis_list	pelvis_rotation	pelvis_tx	pelvis_ty	pelvis_tz	hip_flexion_r	hip_adduction_r	hip_rotation_r	knee_angle_r	knee_angle_r_beta	ankle_angle_r	subtalar_angle_r	mtp_angle_r	hip_flexion_l	hip_adduction_l	hip_rotation_l	knee_angle_l	knee_angle_l_beta	ankle_angle_l	subtalar_angle_l	mtp_angle_l	lumbar_extension	lumbar_bending	lumbar_rotation	arm_flex_r	arm_add_r	arm_rot_r	elbow_flex_r	pro_sup_r	wrist_flex_r	wrist_dev_r	arm_flex_l	arm_add_l	arm_rot_l	elbow_flex_l	pro_sup_l	wrist_flex_l	wrist_dev_l
     10.48714286	     -0.88019850	     -7.62747940	      1.18076597	      0.99944899	      0.91715771	      0.57982571	      9.03252396	      9.77157123	     -8.41516885	     24.93469131	     24.93469131	     18.17731004	    -10.59909588	      1.08719677	     26.94058392	    -19.60691291	      3.34556237	     65.61826224	     65.61826224	      8.83546699	    -19.70845064	     24.33298868	    -11.02173961	      6.46528497	      0.57999267	     19.84610306	    -13.40884917	     -4.92826517	     40.98853543	     45.74676945	      0.00000000	      0.00000000	      1.60412468	     -8.74772897	     -0.98284883	     31.77446284	     46.14105151	      0.00000000	      0.00000000
     10.50928571	     -0.62457597	     -7.58647837	      1.93610748	      0.99751296	      0.91625624	      0.58014860	      8.91682307	      9.80449865	     -8.64569067	     25.46648409	     25.46648409	     18.74752957	    -11.26827796	      1.78833542	     28.69559378	    -19.20296997	      3.88901709	     66.60387738	     66.60387738	      9.07962862	    -19.72408826	     25.08785879	    -11.22328719	      6.36183562	      1.28005935	     21.82035912	    -14.03477482	     -4.76084862	     43.52089663	     45.65446770	      0.00000000	      0.00000000	      0.39338626	     -8.63205736	      4.68382959	     29.42374089	     45.27848044	      0.00000000	      0.00000000
     10.53142857	     -0.39690508	     -7.48586625	      2.68081273	      0.99555255	      0.91580881	      0.58000725	      8.65846073	      9.74032437	     -8.95241260	     25.66592215	     25.66592215	     18.98341593	    -11.78389964	      1.76559244	     30.17470879	    -18.63690603	      4.27200396	     66.67964276	     66.67964276	      9.55063213	    -19.72992287	     25.05403576	    -11.46188136	      6.20706836	      1.63965065	     24.52648994	    -14.41159853	     -4.99361143	     44.85037056	     45.63314214	      0.00000000	      0.00000000	     -1.38216062	     -7.95636386	      5.08102093	     28.74541654	     45.19130349	      0.00000000	      0.00000000
     10.55357143	     -0.33328214	     -7.22543001	      3.48492334	      0.99350159	      0.91563573	      0.57927598	      8.49470775	      9.46158857	     -9.31441379	     25.71977149	     25.71977149	     19.15193420	    -12.30231335	      1.82642396	     31.54994079	    -17.73136817	      4.58763740	     65.86467269	     65.86467269	     10.42339108	    -19.72152100	     25.17599331	    -11.50332488	      5.95140520	      1.19817243	     27.42792298	    -14.21104992	     -5.09618724	     46.85946673	     45.58050533	      0.00000000	      0.00000000	     -3.40398994	     -7.54997931	      5.99213054	     28.01301366	     45.01644971	      0.00000000	      0.00000000
     10.57571429	     -0.39559540	     -6.94527321	      4.22486252	      0.99134395	      0.91591088	      0.57813464	      8.29980499	      9.12682069	     -9.70732023	     25.47802978	     25.47802978	     19.19960057	    -12.56439875	      1.91572418	     32.70500439	    -16.69905138	      4.83453132	     64.08962775	     64.08962775	     11.39124283	    -19.70011852	     24.96571954	    -11.45155041	      5.64708606	      1.89624144	     29.98649418	    -15.06322954	     -5.31613468	     47.93876464	     45.56686957	      0.00000000	      0.00000000	     -4.74767422	     -6.99204639	      6.28202390	     27.65767276	     44.94823619	      0.00000000	      0.00000000
     10.59785714	     -0.38528500	     -6.53496281	      4.99534904	      0.98920106	      0.91668314	      0.57650410	      7.87845188	      8.59371399	    -10.28192503	     25.02690133	     25.02690133	     19.19588153	    -12.45508502	      1.70841951	     33.36584198	    -15.43552591	      5.06401689	     61.35402235	     61.35402235	     12.24143042	    -19.66188013	     24.16560867	    -11.67268700	      5.33224170	      1.78914260	     31.98640909	    -15.75771354	     -3.85254028	     52.73126688	     45.35498012	      0.00000000	      0.00000000	     -7.51027023	     -8.48280854	     15.30462268	     31.14314822	     43.50657499	      0.00000000	      0.00000000
     10.62000000	     -0.58709682	     -6.05831887	      5.71666085	      0.98698087	      0.91767689	      0.57439207	      7.60167265	      7.93626609	    -10.88284577	     24.46456629	     24.46456629	     19.19727730	    -12.21185301	      1.72909548	     33.83883775	    -13.99859079	      5.33051476	     57.73325826	     57.73325826	     12.96888651	    -19.59298117	     23.48809505	    -11.56406195	      4.90387523	      1.78173043	     34.87870983	    -15.87443062	     -4.18562533	     54.18945181	     45.33508433	      0.00000000	      0.00000000	     -8.80469245	     -8.13210822	     16.11519096	     30.68159938	     43.39582398	      0.00000000	      0.00000000
